<svg xmlns="http://www.w3.org/2000/svg" viewBox="0 0 300 55"><title>SimplyView_svg</title><g id="SimplyView_Magenta" data-name="SimplyView Magenta"><path d="M209.52,17.17a20,20,0,0,1-.58,3.15A52.86,52.86,0,0,1,207,26.5q-.78,2-1.72,4.32t-2,4.53c-.73,1.49-1.5,2.94-2.33,4.35s-1.64,2.66-2.44,3.78h-1.41a5,5,0,0,1-2.67-.65,7.93,7.93,0,0,1-2.13-2.28,54.48,54.48,0,0,1-3.08-5.65c-1.07-2.24-2.08-4.6-3-7.08a76.74,76.74,0,0,1-2.37-7.42,38.82,38.82,0,0,1-1.22-6.72h3.95a4,4,0,0,1,3,1.15,4.54,4.54,0,0,1,1.33,2.34,79.65,79.65,0,0,0,2,8.36,53.32,53.32,0,0,0,3.61,8.84q1-2.09,2-4.54c.65-1.63,1.25-3.34,1.82-5.13s1.07-3.6,1.51-5.45.79-3.7,1.08-5.57h3.12a3.51,3.51,0,0,1,2.68.85A3.92,3.92,0,0,1,209.52,17.17Z" fill="#3360aa"/><path d="M222.11,7.28a4.15,4.15,0,0,1-1.28,3,4.13,4.13,0,0,1-3,1.28,4.07,4.07,0,0,1-3-1.28,4.17,4.17,0,0,1-1.26-3,4.05,4.05,0,0,1,1.26-3,4.12,4.12,0,0,1,3-1.25,4.18,4.18,0,0,1,3,1.25A4,4,0,0,1,222.11,7.28ZM227.36,39a4.73,4.73,0,0,1-1,3.41,4.63,4.63,0,0,1-3.36,1q-4.26,0-6.53-2.35c-1.51-1.56-2.27-3.84-2.27-6.82V14.35h2.08a5.29,5.29,0,0,1,3.84,1.33,5.49,5.49,0,0,1,1.39,4.11V33.57a3.74,3.74,0,0,0,1,3,5.63,5.63,0,0,0,3.46.81h1.39Z" fill="#3360aa"/><path d="M255.63,24.45A5.66,5.66,0,0,1,252.35,30q-3.28,1.56-10.53,1.56H237A6.46,6.46,0,0,0,239.71,36a9.17,9.17,0,0,0,5.55,1.64,21.24,21.24,0,0,0,4.77-.57,9.09,9.09,0,0,0,4.24-2.2h.26v2.29a6.45,6.45,0,0,1-.52,2.62,5,5,0,0,1-1.77,2.1,9.53,9.53,0,0,1-3.3,1.43,21.21,21.21,0,0,1-5,.52,14.51,14.51,0,0,1-10-4,14.83,14.83,0,0,1-3.25-4.66A14.65,14.65,0,0,1,229.43,29a19.66,19.66,0,0,1,1.06-6.65,14.77,14.77,0,0,1,3-5.05A12.86,12.86,0,0,1,238,14.15,15,15,0,0,1,243.85,13a12.51,12.51,0,0,1,4.41.79A11.66,11.66,0,0,1,252,16.08a11,11,0,0,1,2.62,3.6A11.18,11.18,0,0,1,255.63,24.45Zm-6.88-.88a3.83,3.83,0,0,0-1.51-3.33,6.74,6.74,0,0,0-4.06-1.09,5.67,5.67,0,0,0-2.43.52A6.49,6.49,0,0,0,238.81,21a5.92,5.92,0,0,0-1.28,2,7.46,7.46,0,0,0-.51,2.4l-.05,1h3.25c1.76,0,3.19-.06,4.28-.16a11.08,11.08,0,0,0,2.58-.5,2.42,2.42,0,0,0,1.31-.88A2.27,2.27,0,0,0,248.75,23.57Z" fill="#3360aa"/><path d="M300.5,16.69a10.06,10.06,0,0,1-.21,1.55c-.15.75-.36,1.66-.66,2.76s-.64,2.32-1.06,3.69-.9,2.82-1.45,4.34-1.13,3.07-1.72,4.5-1.2,2.76-1.8,4-1.19,2.37-1.75,3.38a28.8,28.8,0,0,1-1.56,2.56h-1.2a3.61,3.61,0,0,1-1.61-.35,6,6,0,0,1-1.39-.91,7.43,7.43,0,0,1-1.14-1.3c-.33-.48-.62-.93-.87-1.36-.44-.8-.91-1.73-1.4-2.81s-.95-2.19-1.39-3.36-.83-2.34-1.19-3.54-.67-2.37-.9-3.51a33.23,33.23,0,0,1-1.08,4.08c-.5,1.58-1.09,3.19-1.74,4.82s-1.35,3.2-2.08,4.7a22,22,0,0,1-2.08,3.54h-1a3.89,3.89,0,0,1-1.6-.35,6.15,6.15,0,0,1-1.48-.91,8.35,8.35,0,0,1-1.22-1.3,12.57,12.57,0,0,1-.92-1.36,66,66,0,0,1-5.33-12.06,74.67,74.67,0,0,1-3.09-13.82h3.94a3.81,3.81,0,0,1,3,1.15,4.93,4.93,0,0,1,1.3,2.4q.63,3.78,1.73,7.85a50,50,0,0,0,3,8.09,56.41,56.41,0,0,0,3.25-9.07q1.23-4.63,2.32-9.33h2.4a6.09,6.09,0,0,1,3.15.88,4.79,4.79,0,0,1,2,3.28c.23,1,.5,2.08.82,3.29s.69,2.47,1.1,3.75.85,2.54,1.34,3.8,1,2.38,1.51,3.4a62.37,62.37,0,0,0,3.34-9.64q1.31-5,2.15-10H297a4.22,4.22,0,0,1,2.56.73A2.85,2.85,0,0,1,300.5,16.69Z" fill="#3360aa"/><path d="M33.24,11.56A4.65,4.65,0,0,0,38,7.08a4.82,4.82,0,0,0-9.61,0A4.67,4.67,0,0,0,33.24,11.56Z" fill="#3360aa"/><path d="M17.21,26.26c-6.28-1-8.27-1.48-8.27-3.75,0-1.58,1.13-3.47,6.51-3.47a19.3,19.3,0,0,1,9.15,2.05V19.41c0-4.16-3.9-6.64-10.44-6.64S.5,16.09.5,23.39C.5,27.86,3,30.2,8.46,31c6.42.9,8.29,1.53,8.29,4,0,3.53-4.6,3.53-6.33,3.53a18.12,18.12,0,0,1-9.16-2.15v1.54c0,1.7,0,6.88,10.91,6.88,8.14,0,13.19-3.93,13.19-10.27C25.36,28.79,20.93,26.86,17.21,26.26Z" fill="gray"/><path d="M115.66,12.77C104.85,12.77,98.9,18.88,98.9,30V47c0,4.74,1.73,6.76,5.77,6.76h3V39s.06,1.14,1.89,3.22c2.12,2.16,4,2.53,7.36,2.53,8.49,0,14.19-6.71,14.19-16.7C131.13,19.06,124.77,12.77,115.66,12.77Zm.61,24.35c-3.79,0-7.39-2.39-7.39-9.23,0-4.74,3.13-7.66,6.17-7.66,4.56,0,7.34,2.1,7.34,9C122.39,34,119.78,37.12,116.27,37.12Z" fill="gray"/><path d="M143.63,32.56V9.24c0-4.72-1.79-6.64-6.17-6.64h-2.91V34.2c0,7.44,5.15,10.09,10,10.09,1.87,0,6.23-.4,6.23-4.13V37.32h-1.44C146.88,37.32,143.63,36.82,143.63,32.56Z" fill="gray"/><path d="M175.47,13.7H171a71.57,71.57,0,0,1-5.59,19.19l-1,2-.87-2a95.29,95.29,0,0,1-5.09-15.38c-.55-2.47-3.07-3.77-5.26-3.77h-4.59c1.54,8.29,6.9,21.73,11.45,28.53l.31.46-.23.51c-1.37,3.08-3.13,4.38-6.28,4.63l-3.86.29v1.74c0,3.35,3,4.54,5.54,4.54,6.25,0,8.24-1.48,17.1-18.51,3.6-6.89,6.49-16.09,6.49-19.11C179.19,15.46,178.81,13.7,175.47,13.7Z" fill="gray"/><path d="M61.07,20.48c3.58,0,5.39,2.15,5.39,6.39V38.35c0,4.09,1.49,5.47,5.89,5.47h2.84V27c0-5.37,2.81-6.5,5.17-6.5,3.89,0,5.63,2.06,5.63,6.68V38.35c0,3.55,1,5.47,6.23,5.47h2.85V27.36c0-9.41-4.94-14.59-13.89-14.59C76.84,12.77,73.24,16,72,18l-1.06,1.7-.74-1.86c-.85-2.11-4.18-5.09-8.94-5.09A17,17,0,0,0,53,14.62c-4.17,2.27-6.37,6.58-6.37,12.45V31.8c0,3-1.37,4.46-4.32,4.71h-.17c-3-.24-4.37-1.74-4.37-4.71V21.34c0-5.22-1.58-6.64-7.35-6.64H28.7V33.43c0,2.82.67,5,2,6.47,1.93,2.12,6.07,4.4,11.38,4.4h.22a18.48,18.48,0,0,0,3.88-.45l.22-.05a13.7,13.7,0,0,0,5.05-2.22l.23-.17a10.6,10.6,0,0,0,4-7.73V27.22C55.81,24.59,56.45,20.48,61.07,20.48Z" fill="gray"/></g></svg>